<?xml version="1.0" encoding="UTF-8"?>
<svg id="Calque_1" xmlns="http://www.w3.org/2000/svg" baseProfile="tiny" version="1.2" viewBox="0 0 2955 300">
  <!-- Generator: Adobe Illustrator 29.3.1, SVG Export Plug-In . SVG Version: 2.1.0 Build 151)  -->
  <g id="Logo_base">
    <g>
      <path d="M259.2,79.1h37.8s0,0,0,0v-26.1h12.5c10.4,0,18.8-8.4,18.8-18.8s-6.9-17.1-15.9-18.5h-68.4c-9,1.4-15.9,9.1-15.9,18.5s8.4,18.8,18.8,18.8h12.5v26.1s0,0,0,0Z"/>
      <path d="M465.1,273.1H87.2c-6.9,0-12.6,2.6-12.6,5.9h0c0,3.2,5.7,5.9,12.6,5.9h377.9c6.9,0,12.6-2.6,12.6-5.9h0c0-3.2-5.7-5.9-12.6-5.9Z"/>
      <g>
        <path d="M395.5,122.2c-32.8-33.9-72.7-51.1-118.5-51.1s-86.7,17-119.8,50.7c-33.2,33.6-50.1,74.4-50.1,121.3s0,5.4.2,8.1h45.1c-.1-2.4-.2-4.9-.2-7.4,0-36.2,12.1-67,35.9-91.7,23.9-25,53.5-37.6,88.2-37.6s64.4,12.7,88,37.6c23.7,24.8,35.7,55.9,35.7,92.5s0,4.4-.1,6.5h45.1c0-2,.1-4.1.1-6.1,0-47.6-16.7-88.9-49.7-122.8Z"/>
        <path d="M277,66.3c-47.8,0-89.2,17.5-123.2,52.1-34.1,34.6-51.5,76.5-51.5,124.6s0,5.4.2,8.1h4.8c0-2.7-.2-5.4-.2-8.1,0-46.8,16.8-87.6,50.1-121.3,33.1-33.6,73.4-50.7,119.8-50.7s85.7,17.2,118.5,51.1c33,33.9,49.7,75.2,49.7,122.8s0,4.1-.1,6.1h4.8c0-2,.1-4.1.1-6.1,0-48.9-17.2-91.3-51-126.1-33.7-34.9-74.8-52.5-122-52.5Z"/>
        <path d="M364.3,152c-23.6-25-53.2-37.6-88-37.6s-64.3,12.7-88.2,37.6c-23.8,24.6-35.9,55.5-35.9,91.7s0,5,.2,7.4h4.8c-.1-2.4-.2-4.9-.2-7.4,0-34.9,11.6-64.6,34.6-88.3,22.9-24,51.4-36.1,84.7-36.1s61.9,12.2,84.5,36.1c22.8,23.9,34.4,53.9,34.4,89.2s0,4.4-.1,6.5h4.8c0-2.2.1-4.3.1-6.5,0-36.6-12-67.8-35.7-92.5Z"/>
      </g>
    </g>
    <path d="M595.4,120.8h86.5c8.2,0,14.9-6.7,14.9-14.9V30.2c0-8.2,6.7-14.9,14.9-14.9h10.9c8.2,0,14.9,6.7,14.9,14.9v239.9c0,8.2-6.7,14.9-14.9,14.9h-10.9c-8.2,0-14.9-6.7-14.9-14.9v-96.1c0-8.2-6.7-14.9-14.9-14.9h-86.5c-8.2,0-14.9,6.7-14.9,14.9v96.1c0,8.2-6.7,14.9-14.9,14.9h-10.9c-8.2,0-14.9-6.7-14.9-14.9V30.2c0-8.2,6.7-14.9,14.9-14.9h10.9c8.2,0,14.9,6.7,14.9,14.9v75.7c0,8.2,6.7,14.9,14.9,14.9Z" stroke="#000" stroke-miterlimit="10" stroke-width="3.9"/>
    <path d="M865.6,278.6L917.8,11.9c1-5.2,8.1-6,10.2-1.1l80.8,182.9c1.9,4.3,7.9,4.3,9.8,0l83.7-182.9c2.2-4.8,9.3-3.9,10.2,1.3l46.9,266.6c.6,3.3-2,6.3-5.3,6.3h-30.7c-2.7,0-4.9-1.9-5.3-4.5l-22.5-140.6c-.8-5.3-8-6.2-10.2-1.4l-67.4,148c-1.9,4.2-8,4.2-9.8,0l-65.5-148.2c-2.2-4.9-9.3-4-10.2,1.2l-25.1,141.1c-.5,2.6-2.7,4.5-5.3,4.5h-31c-3.4,0-5.9-3.1-5.3-6.4Z" stroke="#000" stroke-miterlimit="10" stroke-width="3.9"/>
    <path d="M1342.3,165.9l-77.1-134.2c-4.2-7.3,1.1-16.4,9.5-16.4h21.5c3.9,0,7.6,2.1,9.5,5.5l49,85.7c4.2,7.3,14.8,7.4,19,0l49.2-85.7c2-3.4,5.6-5.5,9.5-5.5h21.5c8.4,0,13.7,9.1,9.5,16.4l-77.4,134.2c-1,1.7-1.5,3.6-1.5,5.5v102.6c0,6.1-4.9,11-11,11h-18.8c-6.1,0-11-4.9-11-11v-102.6c0-1.9-.5-3.8-1.5-5.5Z" stroke="#000" stroke-miterlimit="10" stroke-width="3.9"/>
    <path d="M1712.2,74.6h-56.8c-7.6,0-13.8,6.2-13.8,13.8v17.5c0,7.6,6.2,13.8,13.8,13.8h49.3c7.6,0,13.8,6.2,13.8,13.8v31.8c0,7.6-6.2,13.8-13.8,13.8h-49.3c-7.6,0-13.8,6.2-13.8,13.8v78.3c0,7.6-6.2,13.8-13.8,13.8h-42.5c-7.6,0-13.8-6.2-13.8-13.8V29c0-7.6,6.2-13.8,13.8-13.8h126.9c7.6,0,13.8,6.2,13.8,13.8v31.8c0,7.6-6.2,13.8-13.8,13.8Z" stroke="#000" stroke-miterlimit="10" stroke-width="3.9"/>
    <path d="M1826.9,150.1c0-20,3.7-38.7,11.1-56,7.4-17.3,17.6-32.4,30.8-45.3,13.1-12.9,28.8-23,47-30.2,18.2-7.3,38.3-10.9,60.3-10.9s41.7,3.6,60.1,10.9c18.4,7.3,34.2,17.4,47.4,30.2,13.2,12.9,23.5,28,30.9,45.3,7.4,17.3,11.1,36,11.1,56s-3.7,38.7-11.1,56c-7.4,17.3-17.7,32.4-30.9,45.3-13.2,12.9-29,23-47.4,30.2-18.4,7.3-38.4,10.9-60.1,10.9s-42-3.6-60.3-10.9c-18.2-7.3-33.9-17.4-47-30.2-13.1-12.9-23.4-28-30.8-45.3-7.4-17.3-11.1-36-11.1-56ZM1900.2,150.1c0,10.7,2,20.6,6.1,29.7,4.1,9.1,9.5,16.9,16.5,23.6,6.9,6.7,15,11.9,24.1,15.6,9.2,3.7,18.9,5.5,29.2,5.5s20-1.8,29.2-5.5c9.2-3.7,17.3-8.9,24.3-15.6,7-6.7,12.6-14.5,16.6-23.6,4.1-9.1,6.1-19,6.1-29.7s-2-20.6-6.1-29.7c-4.1-9.1-9.6-16.9-16.6-23.6-7-6.7-15.1-11.9-24.3-15.6-9.2-3.7-16.1-6.2-26.4-6.2s-22.7,2.5-31.9,6.2c-9.2,3.7-17.2,8.9-24.1,15.6-6.9,6.7-12.4,14.6-16.5,23.6-4.1,9.1-6.1,19-6.1,29.7Z" stroke="#000" stroke-miterlimit="10" stroke-width="3.9"/>
    <g>
      <path d="M2229.3,150.1c0-20,3.7-38.7,11.1-56,7.4-17.3,17.6-32.4,30.8-45.3,13.1-12.9,28.8-23,47-30.2,18.2-7.3,38.3-10.9,60.3-10.9s41.7,3.6,60.1,10.9c18.4,7.3,34.2,17.4,47.4,30.2,13.2,12.9,23.5,28,30.9,45.3,7.4,17.3,11.1,36,11.1,56s-3.7,38.7-11.1,56c-7.4,17.3-17.7,32.4-30.9,45.3-13.2,12.9-29,23-47.4,30.2-18.4,7.3-38.4,10.9-60.1,10.9s-42-3.6-60.3-10.9c-18.2-7.3-33.9-17.4-47-30.2-13.1-12.9-23.4-28-30.8-45.3-7.4-17.3-11.1-36-11.1-56ZM2302.7,150.1c0,10.7,2,20.6,6.1,29.7,4.1,9.1,9.5,16.9,16.5,23.6,6.9,6.7,15,11.9,24.1,15.6,9.2,3.7,19.2,73.4,29.5,73.4s19.7-69.7,28.8-73.4c9.2-3.7,17.3-8.9,24.3-15.6,7-6.7,12.6-14.5,16.6-23.6,4.1-9.1,6.1-19,6.1-29.7s-2-20.6-6.1-29.7c-4.1-9.1-9.6-16.9-16.6-23.6-7-6.7-15.1-11.9-24.3-15.6-9.2-3.7-18.9-5.5-29.2-5.5s-20,1.8-29.2,5.5c-9.2,3.7-17.2,8.9-24.1,15.6-6.9,6.7-12.4,14.6-16.5,23.6-4.1,9.1-6.1,19-6.1,29.7Z" stroke="#000" stroke-miterlimit="10" stroke-width="3.9"/>
      <polygon points="2411.7 133.6 2391.2 148.8 2399.3 172.9 2378.6 158.1 2358.1 173.3 2365.8 149 2345 134.3 2370.5 134 2378.1 109.7 2386.2 133.8 2411.7 133.6" stroke="#000" stroke-miterlimit="10" stroke-width="4.2"/>
    </g>
    <path d="M2644,31.3c0-8.9,7.2-16.1,16.1-16.1h87.6c18.4,0,35.6,3.7,51.7,11.1,16.1,7.4,30.2,17.2,42.2,29.5,12,12.3,21.5,26.6,28.4,42.9,6.9,16.3,10.4,33.4,10.4,51.3s-3.4,34.6-10.2,51c-6.8,16.3-16.2,30.7-28.3,43.1-12,12.4-26.1,22.3-42.2,29.7-16.1,7.4-33.4,11.1-52.1,11.1h-87.6c-8.9,0-16.1-7.2-16.1-16.1V31.3ZM2714.1,209.5c0,8.9,7.2,16.1,16.1,16.1h0c12.2,0,23-1.9,32.6-5.7,9.5-3.8,17.6-9.1,24.1-15.7,6.6-6.7,11.6-14.6,15-23.8,3.5-9.2,5.2-19.3,5.2-30.2s-1.8-20.7-5.4-30.1c-3.6-9.3-8.6-17.3-15.2-24-6.6-6.7-14.6-11.9-24.1-15.7-9.5-3.8-20.3-5.7-32.2-5.7h0c-8.9,0-16.1,7.2-16.1,16.1v118.8Z" stroke="#000" stroke-miterlimit="10" stroke-width="3.9"/>
  </g>
  <metadata>
    <sfw xmlns="http://ns.adobe.com/SaveForWeb/1.0/">
      <slices/>
      <sliceSourceBounds x="74.57" y="-422.6" width="2807.8" height="417.05" bottomLeftOrigin="true"/>
    </sfw>
  </metadata>
</svg>