<svg width="32" height="32" viewBox="0 0 32 32" fill="none" xmlns="http://www.w3.org/2000/svg">
<g id="Profile">
<path id="Vector" d="M16 0C7.17386 0 0 7.17386 0 16C0 24.8261 7.17386 32 16 32C24.8261 32 32 24.8261 32 16C32 7.17386 24.8261 0 16 0ZM16 29.281C11.7961 29.281 8.05229 27.315 5.61569 24.251C7.31147 22.0325 9.67656 20.4191 12.3608 19.6497C11.3932 19.0364 10.5964 18.1885 10.0443 17.1847C9.49212 16.181 9.20261 15.0541 9.20261 13.9085C9.20261 12.1057 9.91877 10.3768 11.1935 9.10202C12.4683 7.82726 14.1972 7.11111 16 7.11111C17.8028 7.11111 19.5317 7.82726 20.8065 9.10202C22.0812 10.3768 22.7974 12.1057 22.7974 13.9085C22.7982 15.0556 22.5091 16.1844 21.957 17.1899C21.4048 18.1954 20.6076 19.0452 19.6392 19.6601C22.3238 20.4289 24.689 22.0425 26.3843 24.2614C25.1437 25.8267 23.5652 27.0912 21.767 27.9605C19.9688 28.8297 17.9973 29.2811 16 29.281Z" fill="#25303B"/>
</g>
</svg>
